<svg xmlns="http://www.w3.org/2000/svg" version="1.1" xmlns:xlink="http://www.w3.org/1999/xlink" xmlns:svgjs="http://svgjs.dev/svgjs" width="1000" height="750" viewBox="0 0 1000 750"><rect width="1000" height="750" fill="#ffffff"></rect><g transform="matrix(0.834,0,0,0.834,82.49454545454546,115.4193570850203)"><svg viewBox="0 0 396 247" data-background-color="#ffffff" preserveAspectRatio="xMidYMid meet" height="623" width="1000" xmlns="http://www.w3.org/2000/svg" xmlns:xlink="http://www.w3.org/1999/xlink"><g id="tight-bounds" transform="matrix(1,0,0,1,0.2400000000000091,-0.09999999999999432)"><svg viewBox="0 0 395.52 247.2" height="247.2" width="395.52"><g><svg></svg></g><g><svg viewBox="0 0 395.52 247.2" height="247.2" width="395.52"><g transform="matrix(1,0,0,1,75.54432,82.73772739750987)"><svg viewBox="0 0 244.43135999999998 81.72454520498025" height="81.72454520498025" width="244.43135999999998"><g><svg viewBox="0 0 244.43135999999998 81.72454520498025" height="81.72454520498025" width="244.43135999999998"><g><svg viewBox="0 0 244.43135999999998 81.72454520498025" height="81.72454520498025" width="244.43135999999998"><g><svg viewBox="0 0 244.43135999999998 81.72454520498025" height="81.72454520498025" width="244.43135999999998"><g id="textblocktransform"><svg viewBox="0 0 244.43135999999998 81.72454520498025" height="81.72454520498025" width="244.43135999999998" id="textblock"><g><svg viewBox="0 0 244.43135999999998 81.72454520498025" height="81.72454520498025" width="244.43135999999998"><g transform="matrix(1,0,0,1,0,0)"><svg width="244.43135999999998" viewBox="0.5 -39.25 164.6300048828125 55.04999923706055" height="81.72454520498025" data-palette-color="#202046"><path d="M51.9-9.6L51.9-9.6Q51.9-6.75 49.85-4.3L49.85-4.3Q46.95-0.8 42.1 0.75L42.1 0.75Q38.5 1.9 35.1 1.9L35.1 1.9Q33.85 1.9 32.65 1.75L32.65 1.75Q24.8 0.75 19.35-1.7L19.35-1.7Q14.4 1.95 8.9 1.95L8.9 1.95Q2.4 1.95 0.85-1.65L0.85-1.65Q0.5-2.5 0.5-3.65 0.5-4.8 1.65-6.1L1.65-6.1Q3.45-8.1 6.65-8.1L6.65-8.1Q8.75-8.1 10.45-7.5 12.15-6.9 14.65-5.55 17.15-4.2 18.35-3.6L18.35-3.6Q20.55-5.75 22.9-9.58 25.25-13.4 27.03-17.07 28.8-20.75 31.55-25.25 34.3-29.75 37.15-32.9L37.15-32.9 40-36.15Q36.05-36.85 31.3-36.85 26.55-36.85 20.85-35.6L20.85-35.6Q13.05-33.95 8.85-28.9L8.85-28.9Q6.3-25.85 6.3-23.1L6.3-23.1Q6.3-19.45 9.85-18.35L9.85-18.35Q11.1-18 12.05-18 13-18 14.25-18.35 15.5-18.7 16.68-19.83 17.85-20.95 18.38-22 18.9-23.05 18.9-23.58 18.9-24.1 19.4-24.1L19.4-24.1Q19.9-24.05 19.95-23.4L19.95-23.4 19.95-23.35Q19.4-19.7 16.05-17.8L16.05-17.8Q14-16.7 11.95-16.7L11.95-16.7 9.35-17.15Q4.05-19 4.05-24.05L4.05-24.05Q4.05-27.5 7.1-30.85L7.1-30.85Q12-36.35 21.5-37.7L21.5-37.7Q26.1-38.35 31.08-38.35 36.05-38.35 41.2-37.25L41.2-37.25Q42.6-38.45 43.65-38.85 44.7-39.25 44.88-39.25 45.05-39.25 45.1-39.2L45.1-39.2Q45.4-39.2 45.23-38.88 45.05-38.55 44.13-37.95 43.2-37.35 43-36.85L43-36.85Q49.8-35.1 52.8-31.85L52.8-31.85Q54.4-30.05 54.4-28.18 54.4-26.3 53.3-24.4L53.3-24.4Q51.85-21.9 48.6-20.63 45.35-19.35 42.05-19.2L42.05-19.2Q45.25-18.2 48-16.4L48-16.4Q51.9-13.85 51.9-9.6ZM34.4 0.5L34.4 0.5Q40 0.5 43.9-2.7L43.9-2.7Q48.15-6.1 48.15-10.05L48.15-10.05Q48.15-14.15 43.8-16.25L43.8-16.25Q42.2-17 39.88-17.73 37.55-18.45 36.13-18.95 34.7-19.45 34.5-19.9L34.5-19.9Q34.5-20.85 35.95-20.9L35.95-20.9Q36.9-20.9 38.85-20.75 40.8-20.6 42.2-20.63 43.6-20.65 45.58-21.63 47.55-22.6 48.95-24.15L48.95-24.15Q51.2-26.65 51.2-28.85L51.2-28.85Q51.2-33.55 42.4-35.6L42.4-35.6Q39.75-31.95 32.9-20.18 26.05-8.4 22.35-4.4L22.35-4.4 20.45-2.6Q26.1-0.25 32.6 0.4L32.6 0.4Q33.55 0.5 34.4 0.5ZM17.25-2.65L17.25-2.65Q11.4-5.45 9.85-6 8.3-6.55 6.78-6.55 5.25-6.55 4.35-5.48 3.45-4.4 3.45-3.53 3.45-2.65 3.85-1.85L3.85-1.85Q4.95 0.4 8.45 0.4L8.45 0.4Q13.2 0.4 17.25-2.65ZM61.75-19.45Q61.05-18.85 60.2-18.85 59.35-18.85 58.85-19.45 58.35-20.05 58.45-20.9L58.45-20.9Q58.6-21.75 59.3-22.35 60-22.95 60.85-22.95 61.7-22.95 62.22-22.35 62.75-21.75 62.6-20.9 62.45-20.05 61.75-19.45ZM56.85-1.1L56.85-1.1Q57.8-1.1 58.85-2.05L58.85-2.05Q60.7-3.9 63.55-9.6L63.55-9.6Q63.9-10.35 64.25-10.05L64.25-10.05Q64.35-9.95 64.35-9.73 64.35-9.5 63.95-8.63 63.55-7.75 63.22-7.05 62.9-6.35 61.97-4.78 61.05-3.2 60.3-2.35L60.3-2.35Q58.25 0 56.42 0 54.6 0 53.8-1.1 53-2.2 53-3.55 53-4.9 53.65-6.5L53.65-6.5 56.85-14.65Q56.95-14.95 56.95-15.45 56.95-15.95 56.35-16.75L56.35-16.75 59.1-16.8Q60.25-16.8 60.45-16.38 60.65-15.95 60.15-15.05L60.15-15.05 56.15-5.7Q55.3-3.85 55.3-2.55L55.3-2.55Q55.3-1.1 56.85-1.1ZM67.85-0.95L67.85-0.95Q68.5-0.85 68.75-0.85L68.75-0.85Q70.75-0.85 72.7-3.2L72.7-3.2Q73.75-4.5 76.45-9.75L76.45-9.75Q76.55-10 76.8-10L76.8-10Q77.25-10.05 77.25-9.65L77.25-9.65Q77.25-9.55 77.02-9.08 76.8-8.6 76.6-8.13 76.4-7.65 75.95-6.75 75.5-5.85 75.17-5.3 74.85-4.75 74.35-3.95 73.85-3.15 73.35-2.7L73.35-2.7 72.3-1.6Q71.45-0.75 70.3-0.4L70.3-0.4Q68.45 0.2 66.7-0.3L66.7-0.3Q65.55 0.2 64.65 0.2L64.65 0.2Q61.1 0.2 60.35-2.6L60.35-2.6Q60.2-3.25 60.2-4.17 60.2-5.1 60.82-5.95 61.45-6.8 62.15-6.85L62.15-6.85Q64.7-11.7 66.5-15.6L66.5-15.6Q68.5-19.85 71.15-19.85L71.15-19.85Q71.85-19.85 72.52-19.53 73.2-19.2 73.02-18.8 72.85-18.4 72.3-18.65 71.75-18.9 71.35-18.9 70.95-18.9 70.65-18.75L70.65-18.75Q68.95-17.95 68.95-15.3L68.95-15.3Q68.95-13.9 69.35-13 69.75-12.1 70.25-11.05L70.25-11.05Q71.4-8.45 71.4-6.8L71.4-6.8Q71.4-5.15 70.35-3.55 69.3-1.95 67.85-0.95ZM66.15-1.3L66.15-1.3Q68.35-3 68.35-6.8L68.35-6.8Q68.35-8.35 68-11.05 67.65-13.75 67.65-14.7 67.65-15.65 67.7-16L67.7-16Q63.9-8.4 63-6.75L63-6.75Q64.05-6.75 64.05-5.25L64.05-5.25Q64.05-2.3 66.15-1.3ZM62.4-2.65L62.4-2.65Q62.4-2.35 62.45-2L62.45-2Q62.85-0.65 64.3-0.65L64.3-0.65Q64.9-0.65 65.3-0.85L65.3-0.85Q63.45-2 63.3-4.6L63.3-4.6Q62.4-3.7 62.4-2.65ZM85.29-2.25L85.29-2.25Q85.29-0.85 86.29-0.85L86.29-0.85Q88.64-0.85 92.94-9.65L92.94-9.65Q93.29-10.35 93.57-10.2 93.84-10.05 93.84-9.8 93.84-9.55 93.27-8.38 92.69-7.2 92.12-6.13 91.54-5.05 90.44-3.3L90.44-3.3Q88.14 0.2 85.54 0.2L85.54 0.2Q83.84 0.2 82.84-1.2L82.84-1.2Q82.39-1.85 82.39-2.98 82.39-4.1 82.89-5.7 83.39-7.3 85.64-10.9L85.64-10.9Q86.19-11.8 86.19-12.33 86.19-12.85 85.34-12.85 84.49-12.85 82.09-10.6L82.09-10.6Q78.49-7.3 75.09-0.7L75.09-0.7Q74.74 0.05 73.24 0.05L73.24 0.05Q71.89 0.15 71.54 0.35L71.54 0.35Q81.04-19.4 85.29-27.2L85.29-27.2Q86.24-28.95 86.97-29.65 87.69-30.35 88.69-30.35L88.69-30.35Q88.94-30.35 89.74-30.23 90.54-30.1 90.94-30.15L90.94-30.15Q89.44-28.6 85.57-21.58 81.69-14.55 78.14-7.3L78.14-7.3Q80.49-10.25 82.37-11.9 84.24-13.55 86.94-15.03 89.64-16.5 90.89-16.5L90.89-16.5Q91.19-16.5 91.44-16.4L91.44-16.4Q85.29-5.6 85.29-2.25ZM115.29-17.45L115.29-17.45 115.04-16.6Q112.84-9.3 111.04-5.9L111.04-5.9Q107.79 0.1 103.94 0.1L103.94 0.1Q102.14 0.1 101.49-0.83 100.84-1.75 100.77-2.5 100.69-3.25 100.69-3.8L100.69-3.8Q100.69-5.15 101.14-6.75L101.14-6.75Q97.44 0 94.49 0L94.49 0Q93.39 0 92.49-0.63 91.59-1.25 91.39-2.3L91.39-2.3Q91.24-2.55 91.24-2.9L91.24-2.9Q91.24-5.05 93.09-8.1L93.09-8.1Q92.29-8.1 92.64-8.9L92.64-8.9 93.54-10.65Q95.99-15.45 96.34-16.15L96.34-16.15Q96.84-17.2 98.29-17.2L98.29-17.2 101.34-17.2Q99.54-15.9 97.72-12.18 95.89-8.45 94.92-6.35 93.94-4.25 93.94-3.13 93.94-2 94.32-1.53 94.69-1.05 95.29-1.05 95.89-1.05 96.74-1.88 97.59-2.7 98.29-3.65 98.99-4.6 99.72-5.8 100.44-7 101.04-8.08 101.64-9.15 102.34-10.58 103.04-12 103.44-12.8L103.44-12.8Q104.89-15.7 105.04-16.15L105.04-16.15Q105.49-17.2 106.94-17.2L106.94-17.2 109.99-17.2Q109.89-17.1 109.44-16.8L109.44-16.8Q108.44-16.15 107.99-15.35L107.99-15.35Q105.74-11.6 104.84-9.3L104.84-9.3Q102.84-4.2 102.84-2.75L102.84-2.75Q102.84-0.95 104.19-0.9L104.19-0.9Q104.29-0.9 104.44-0.9L104.44-0.9Q108.04-0.9 111.54-9.6L111.54-9.6Q110.84-11.1 110.84-12.35 110.84-13.6 111.14-14.6L111.14-14.6Q111.99-17.5 113.84-18.15L113.84-18.15Q114.19-18.3 114.49-18.3L114.49-18.3Q115.29-18.3 115.29-17.45ZM131.99-13.55Q131.09-12.65 129.44-9.47 127.79-6.3 127.46-4.73 127.14-3.15 127.14-2.18 127.14-1.2 127.89-1.2L127.89-1.2Q128.84-1.2 130.24-2.95L130.24-2.95Q132.29-5.5 134.29-9.6L134.29-9.6Q134.49-10.05 134.74-10.1L134.74-10.1Q135.14-10.25 135.14-9.8L135.14-9.8Q135.14-9.55 134.99-9.2L134.99-9.2Q130.39 0.1 127.24 0.1L127.24 0.1Q125.79 0.1 124.89-1.3L124.89-1.3Q124.44-2.05 124.44-3.3 124.44-4.55 124.94-6.35L124.94-6.35Q120.94 0.1 118.04 0.1L118.04 0.1Q117.24 0.1 116.59-0.4L116.59-0.4Q115.09-1.45 115.09-4L115.09-4Q115.09-8.9 119.34-13.95L119.34-13.95Q121.74-16.75 125.24-17.6L125.24-17.6Q126.19-17.85 127.04-17.85L127.04-17.85Q129.34-17.85 130.94-16.25L130.94-16.25Q131.44-15.7 131.24-15.2 131.04-14.7 130.39-14.8L130.39-14.8Q129.84-16.6 127.99-16.6L127.99-16.6Q125.84-16.6 122.69-13.2L122.69-13.2Q120.89-11.2 119.34-8.5L119.34-8.5Q117.39-5.25 117.39-3.3 117.39-1.35 118.64-1.35L118.64-1.35Q121.64-1.35 126.49-10.55L126.49-10.55Q127.44-12.4 128.09-13.08 128.74-13.75 129.74-13.75L129.74-13.75Q129.94-13.75 130.76-13.6 131.59-13.45 131.99-13.55L131.99-13.55ZM133.94-8.9L136.59-14.65Q136.74-14.95 136.74-15.45 136.74-15.95 136.09-16.75L136.09-16.75 138.84-16.8Q139.99-16.8 140.19-16.38 140.38-15.95 139.88-15.05L139.88-15.05 135.88-5.7Q134.63-2.75 132.78 0.9L132.78 0.9Q134.74 0.15 135.63-0.25 136.53-0.65 137.81-1.7 139.09-2.75 140.01-4.13 140.94-5.5 143.13-9.65L143.13-9.65Q143.49-10.35 143.76-10.2 144.03-10.05 144.03-9.8 144.03-9.55 143.21-7.88 142.38-6.2 141.53-4.75 140.69-3.3 139.34-1.8 137.99-0.3 136.34 0.6 134.69 1.5 131.94 2.5L131.94 2.5Q128.09 9.5 124.14 12.8L124.14 12.8Q122.64 14.05 120.59 14.93 118.53 15.8 116.31 15.8 114.09 15.8 112.89 14.88 111.69 13.95 111.69 12.65 111.69 11.35 112.44 9.7L112.44 9.7Q113.73 7.15 117.14 5.6L117.14 5.6Q119.69 4.4 123.89 3.38 128.09 2.35 129.28 2L129.28 2Q130.53-0.15 130.76-0.63 130.99-1.1 134.38-8.1L134.38-8.1Q133.59-8.1 133.94-8.9L133.94-8.9ZM113.39 10.85L113.39 10.85Q112.84 11.95 112.84 12.85 112.84 13.75 113.53 14.28 114.23 14.8 115.23 14.8L115.23 14.8Q118.14 14.8 121.48 11.8L121.48 11.8Q126.19 7.6 128.34 3.6L128.34 3.6Q120.03 5.8 117.98 6.7L117.98 6.7Q114.73 8.1 113.39 10.85ZM141.13-19.45Q140.44-18.85 139.59-18.85 138.74-18.85 138.28-19.4 137.84-19.95 137.84-20.35 137.84-20.75 137.91-21.25 137.99-21.75 138.69-22.35 139.38-22.95 140.24-22.95 141.09-22.95 141.56-22.43 142.03-21.9 142.03-21.5 142.03-21.1 141.94-20.58 141.84-20.05 141.13-19.45ZM149.98-19.45Q149.28-18.85 148.43-18.85 147.58-18.85 147.08-19.45 146.58-20.05 146.68-20.9L146.68-20.9Q146.83-21.75 147.53-22.35 148.23-22.95 149.08-22.95 149.93-22.95 150.46-22.35 150.98-21.75 150.83-20.9 150.68-20.05 149.98-19.45ZM145.08-1.1L145.08-1.1Q146.03-1.1 147.08-2.05L147.08-2.05Q148.93-3.9 151.78-9.6L151.78-9.6Q152.13-10.35 152.48-10.05L152.48-10.05Q152.58-9.95 152.58-9.73 152.58-9.5 152.18-8.63 151.78-7.75 151.46-7.05 151.13-6.35 150.21-4.78 149.28-3.2 148.53-2.35L148.53-2.35Q146.48 0 144.66 0 142.83 0 142.03-1.1 141.23-2.2 141.23-3.55 141.23-4.9 141.88-6.5L141.88-6.5 145.08-14.65Q145.18-14.95 145.18-15.45 145.18-15.95 144.58-16.75L144.58-16.75 147.33-16.8Q148.48-16.8 148.68-16.38 148.88-15.95 148.38-15.05L148.38-15.05 144.38-5.7Q143.53-3.85 143.53-2.55L143.53-2.55Q143.53-1.1 145.08-1.1ZM150.58-4L150.58-4Q150.58-8.15 154.58-17.9L154.58-17.9 151.98-17.9Q151.73-17.9 151.66-18.18 151.58-18.45 151.7-18.73 151.83-19 152.08-19L152.08-19 155.08-19Q156.88-22.95 158.43-25.6 159.98-28.25 161.28-29.18 162.58-30.1 163.16-30.1 163.73-30.1 163.98-30L163.98-30Q165.13-29.45 165.13-27.73 165.13-26 163.98-23.55 162.83-21.1 161.73-19L161.73-19 164.13-19Q164.38-19 164.45-18.73 164.53-18.45 164.41-18.18 164.28-17.9 164.03-17.9L164.03-17.9 161.13-17.9Q158.38-13.25 154.48-9.65L154.48-9.65 153.33-4.55Q153.18-3.9 153.18-3.28 153.18-2.65 153.53-2 153.88-1.35 154.63-1.35L154.63-1.35Q155.48-1.35 156.53-1.95L156.53-1.95Q158.93-3.75 161.83-9.5L161.83-9.5Q162.03-9.95 162.3-10.05 162.58-10.15 162.63-9.93 162.68-9.7 162.48-9.2L162.48-9.2Q160.83-5.75 159.88-4.3L159.88-4.3Q157.18 0.05 154.13 0.05L154.13 0.05Q152.58 0.05 151.58-1.1 150.58-2.25 150.58-4ZM158.13-19L160.63-19Q163.93-24.9 163.93-27.2L163.93-27.2Q163.93-28.2 163.58-28.2L163.58-28.2Q163.03-28.2 161.91-26.6 160.78-25 158.13-19L158.13-19ZM159.98-17.9L159.98-17.9 157.63-17.9Q157.03-16.5 154.93-11.25L154.93-11.25Q157.63-14.05 159.98-17.9Z" opacity="1" transform="matrix(1,0,0,1,0,0)" fill="#202046" class="undefined-text-0" data-fill-palette-color="primary" id="text-0"></path></svg></g></svg></g></svg></g></svg></g></svg></g></svg></g></svg></g><g><path d="M245.816 0c68.262 0 123.6 55.338 123.6 123.6 0 68.262-55.338 123.6-123.6 123.6-50.269 0-93.529-30.01-112.843-73.091l4.052 0c19.062 40.989 60.608 69.406 108.791 69.406 66.227 0 119.915-53.688 119.915-119.915 0-66.227-53.688-119.915-119.915-119.915-48.183 0-89.728 28.417-108.791 69.406l-4.052 0c19.313-43.081 62.573-73.091 112.843-73.091z" fill="#202046" stroke="transparent" data-fill-palette-color="tertiary"></path></g></svg></g><defs></defs></svg><rect width="395.52" height="247.2" fill="none" stroke="none" visibility="hidden"></rect></g></svg></g></svg>